<?xml version="1.0" encoding="UTF-8"?>
<!DOCTYPE svg PUBLIC "-//W3C//DTD SVG 1.1//EN" "http://www.w3.org/Graphics/SVG/1.1/DTD/svg11.dtd">
<!-- Creator: CorelDRAW X5 -->
<svg xmlns="http://www.w3.org/2000/svg" xml:space="preserve" width="250mm" height="95mm" style="shape-rendering:geometricPrecision; text-rendering:geometricPrecision; image-rendering:optimizeQuality; fill-rule:evenodd; clip-rule:evenodd"
viewBox="0 0 25000 9500"
 xmlns:xlink="http://www.w3.org/1999/xlink">
 <defs>
  <style type="text/css">
   <![CDATA[
    .fil4 {fill:none}
    .fil3 {fill:#cda274;fill-rule:nonzero}
    .fil0 {fill:url(#id0)}
    .fil2 {fill:url(#id1)}
    .fil1 {fill:url(#id2)}
   ]]>
  </style>
  <linearGradient id="id0" gradientUnits="userSpaceOnUse" x1="2408.54" y1="8465.81" x2="2408.54" y2="962.89">
   <stop offset="0" style="stop-color:#cda274"/>
   <stop offset="0.0117647" style="stop-color:#cda274"/>
   <stop offset="0.219608" style="stop-color:#cda274"/>
   <stop offset="0.309804" style="stop-color:#cda274"/>
   <stop offset="0.380392" style="stop-color:#cda274"/>
   <stop offset="0.419608" style="stop-color:#cda274"/>
   <stop offset="0.729412" style="stop-color:#cda274"/>
   <stop offset="0.870588" style="stop-color:#cda274"/>
   <stop offset="1" style="stop-color:#cda274"/>
  </linearGradient>
  <linearGradient id="id1" gradientUnits="userSpaceOnUse" xlink:href="#id0" x1="6594.05" y1="8449.21" x2="6594.05" y2="964.56">
  </linearGradient>
  <linearGradient id="id2" gradientUnits="userSpaceOnUse" xlink:href="#id0" x1="10525.6" y1="8582.01" x2="10525.6" y2="970.77">
  </linearGradient>
 </defs>
 <g id="Layer_x0020_1">
  <metadata id="CorelCorpID_0Corel-Layer"/>
  <g id="_405352328">
   <g>
    <path class="fil0" d="M1003 8466l2822 0 2 -70 -709 0c0,-229 3,-458 0,-642l0 0c-3,-609 17,-1222 -17,-1829l0 0c-30,-568 -146,-1119 -764,-1446l0 0c417,-229 613,-539 672,-925l0 0c58,-365 91,-737 106,-1107l0 0c18,-452 3,-966 3,-1431l0 0 700 0c-2,-17 0,-36 0,-53l0 0 -2829 0c-2,17 2,38 0,53l0 0 664 0 0 7380 -656 0c0,0 0,70 3,70z"/>
    <path class="fil1" d="M8614 986c23,22 45,60 70,63l0 0c1228,171 1788,986 1906,2115l0 0c96,923 141,1864 66,2787l0 0c-121,1499 -782,2243 -2020,2513l0 0c2032,118 3801,-1633 3740,-3677l0 0c-65,-2000 -1765,-3817 -3490,-3817l0 0c-91,0 -181,5 -272,15z"/>
    <path class="fil2" d="M8003 8449l0 -53 -639 0c0,-2445 -8,-4957 -8,-7378l0 0 631 0c0,0 2,-28 0,-53l-2784 0 0 53 691 0c0,256 -7,521 2,737l0 0c18,525 23,1051 71,1574l0 0c45,473 226,888 702,1145l0 0c-503,295 -700,752 -725,1281l0 0c-32,694 -33,1389 -51,2083l0 0c-3,179 -22,385 -33,558l0 0 -674 0 0 53 2819 0z"/>
   </g>
   <polygon class="fil3" points="12643,7439 12750,7439 12750,7889 13297,7889 13297,7439 13404,7439 13404,8510 13297,8510 13297,7992 12752,7992 12752,8510 12645,8510 12645,7439 "/>
   <path class="fil3" d="M14330 7517c-79,0 -154,20 -226,62 -72,42 -127,97 -167,167 -40,70 -60,149 -60,234 0,127 43,236 132,323 89,89 196,132 319,132 84,0 160,-20 231,-60 70,-40 125,-95 165,-165 40,-70 60,-147 60,-234 0,-85 -20,-162 -60,-231 -40,-69 -95,-124 -167,-166 -70,-42 -147,-62 -227,-62zm-5 -105c162,0 298,54 408,162 109,109 164,242 164,400 0,157 -55,291 -164,400 -109,109 -242,164 -400,164 -159,0 -293,-55 -403,-164 -109,-109 -164,-241 -164,-395 0,-104 25,-199 75,-286 50,-89 117,-157 204,-207 85,-48 179,-74 279,-74z"/>
   <polygon class="fil3" points="15213,8512 15366,7441 15383,7441 15819,8320 16251,7441 16267,7441 16421,8512 16316,8512 16211,7745 15831,8512 15804,8512 15420,7740 15315,8512 "/>
   <polygon class="fil3" points="16784,7439 17399,7439 17399,7544 16893,7544 16893,7880 17396,7880 17396,7985 16893,7985 16893,8407 17396,8407 17396,8512 16784,8512 "/>
   <path class="fil3" d="M18397 8410l124 0c149,0 251,-10 308,-28 80,-27 144,-74 191,-142 47,-69 69,-152 69,-251 0,-104 -25,-192 -75,-266 -50,-74 -120,-124 -209,-150 -67,-20 -177,-30 -331,-30l-75 0 0 868zm-102 102l0 -1072 222 0c160,0 278,13 349,38 104,37 186,100 244,189 59,90 89,197 89,321 0,107 -23,202 -70,284 -47,82 -107,142 -181,181 -74,38 -177,59 -311,59l-343 0z"/>
   <polygon class="fil3" points="19555,7439 20171,7439 20171,7544 19664,7544 19664,7880 20167,7880 20167,7985 19664,7985 19664,8407 20167,8407 20167,8512 19557,8512 19557,7439 "/>
   <path class="fil3" d="M21503 7638l-85 65c-47,-60 -102,-107 -169,-139 -65,-32 -137,-47 -216,-47 -85,0 -166,20 -237,62 -74,42 -129,97 -169,166 -40,69 -60,147 -60,234 0,130 45,239 134,328 90,87 202,130 339,130 150,0 276,-59 376,-177l85 64c-53,69 -120,120 -201,157 -80,37 -169,55 -267,55 -187,0 -336,-62 -445,-187 -90,-105 -137,-232 -137,-381 0,-157 55,-289 166,-396 110,-107 247,-160 413,-160 100,0 191,20 271,60 85,42 150,97 202,167z"/>
   <path class="fil3" d="M22382 7517c-79,0 -154,20 -226,62 -72,42 -127,97 -167,167 -40,70 -60,149 -60,234 0,127 43,236 132,323 89,89 196,132 319,132 84,0 160,-20 231,-60 70,-40 125,-95 165,-165 40,-70 60,-147 60,-234 0,-85 -20,-162 -60,-231 -40,-69 -95,-124 -167,-166 -70,-42 -145,-62 -227,-62zm-3 -105c162,0 298,54 408,162 109,109 164,242 164,400 0,157 -55,291 -164,400 -109,109 -242,164 -400,164 -159,0 -293,-55 -403,-164 -109,-109 -164,-241 -164,-395 0,-104 25,-199 75,-286 50,-89 117,-157 204,-207 85,-48 179,-74 279,-74z"/>
   <path class="fil3" d="M23427 7544l0 364 184 2c72,0 124,-7 159,-20 35,-13 62,-35 80,-65 20,-30 28,-64 28,-100 0,-37 -10,-69 -28,-99 -20,-30 -45,-50 -77,-64 -32,-13 -84,-18 -157,-18l-189 0zm-107 -105l214 0c119,0 199,5 242,15 64,15 115,45 155,94 40,48 60,107 60,177 0,59 -13,110 -42,154 -27,43 -67,79 -117,100 -52,23 -122,33 -211,35l386 498 -132 0 -389 -498 -60 0 0 498 -107 0 0 -1073z"/>
  </g>
  <rect class="fil4" width="25000" height="9500"/>
 </g>
</svg>
