<?xml version="1.0" encoding="UTF-8"?>
<!DOCTYPE svg PUBLIC "-//W3C//DTD SVG 1.1//EN" "http://www.w3.org/Graphics/SVG/1.1/DTD/svg11.dtd">
<!-- Creator: CorelDRAW X5 -->
<svg xmlns="http://www.w3.org/2000/svg" xml:space="preserve" width="280mm" height="282mm" style="shape-rendering:geometricPrecision; text-rendering:geometricPrecision; image-rendering:optimizeQuality; fill-rule:evenodd; clip-rule:evenodd"
viewBox="0 0 28000 28200"
 xmlns:xlink="http://www.w3.org/1999/xlink">
 <defs>
  <style type="text/css">
   <![CDATA[
    .fil0 {fill:none;fill-rule:nonzero}
    .fil4 {fill:#B79756;fill-rule:nonzero}
    .fil1 {fill:url(#id0)}
    .fil3 {fill:url(#id1)}
    .fil2 {fill:url(#id2)}
   ]]>
  </style>
  <linearGradient id="id0" gradientUnits="userSpaceOnUse" x1="7157.98" y1="18370.3" x2="7157.98" y2="6142.43">
   <stop offset="0" style="stop-color:#CFBA7D"/>
   <stop offset="0.0117647" style="stop-color:#CFBA7D"/>
   <stop offset="0.219608" style="stop-color:#B79756"/>
   <stop offset="0.309804" style="stop-color:#D2BF82"/>
   <stop offset="0.380392" style="stop-color:#E6DDA2"/>
   <stop offset="0.419608" style="stop-color:#EDE8AE"/>
   <stop offset="0.729412" style="stop-color:#B3914E"/>
   <stop offset="0.870588" style="stop-color:#D2C083"/>
   <stop offset="1" style="stop-color:#D2C083"/>
  </linearGradient>
  <linearGradient id="id1" gradientUnits="userSpaceOnUse" xlink:href="#id0" x1="13979.3" y1="18343.2" x2="13979.3" y2="6145.15">
  </linearGradient>
  <linearGradient id="id2" gradientUnits="userSpaceOnUse" xlink:href="#id0" x1="20386.8" y1="18559.6" x2="20386.8" y2="6155.28">
  </linearGradient>
 </defs>
 <g id="Layer_x0020_1">
  <metadata id="CorelCorpID_0Corel-Layer"/>
  <polygon class="fil0" points="27989,28211 12,28211 12,-11 27989,-11 "/>
  <path class="fil1" d="M9459 6142l-4610 0c-3,27 3,62 0,87l0 0 1082 0 0 12028 -1069 0c0,0 0,114 5,114l0 0 4599 0 3 -114 -1155 0c0,-373 5,-747 0,-1047l0 0c-5,-993 27,-1991 -27,-2981l0 0c-49,-925 -238,-1823 -1244,-2356l0 0c679,-373 998,-879 1096,-1507l0 0c95,-595 149,-1201 173,-1804l0 0c30,-736 5,-1574 5,-2332l0 0 1142 0c-3,-27 0,-60 0,-87z"/>
  <path class="fil2" d="M17272 6180c38,35 73,97 114,103l0 0c2002,279 2914,1607 3106,3447l0 0c157,1504 230,3038 108,4542l0 0c-197,2443 -1274,3655 -3292,4096l0 0c3311,192 6195,-2662 6095,-5992l0 0c-105,-3259 -2877,-6220 -5687,-6220l0 0c-148,0 -296,8 -443,25l0 0z"/>
  <path class="fil3" d="M16276 18343l0 -87 -1042 0c0,-3985 -14,-8078 -14,-12025l0 0 1028 0c0,0 3,-46 0,-87l-4537 0 0 87 1125 0c0,417 -11,849 3,1201l0 0c30,855 38,1712 116,2565l0 0c73,771 368,1447 1144,1867l0 0c-820,482 -1142,1225 -1182,2088l0 0c-51,1131 -54,2264 -84,3395l0 0c-5,292 -35,628 -54,909l0 0 -1098 0 0 87 4594 0z"/>
  <polygon class="fil4" points="4841,20280 5014,20280 5014,21008 5899,21008 5899,20280 6072,20280 6072,22014 5899,22014 5899,21176 5017,21176 5017,22014 4844,22014 4844,20280 "/>
  <path class="fil4" d="M7571 20407c-127,0 -249,32 -365,100 -116,68 -206,157 -271,271 -65,114 -97,241 -97,379 0,206 70,381 214,522 143,143 317,214 517,214 135,0 260,-32 373,-97 114,-65 203,-154 268,-268 65,-114 97,-238 97,-379 0,-138 -32,-262 -97,-373 -65,-111 -154,-200 -271,-268 -114,-68 -238,-100 -368,-100zm-8 -170c262,0 482,87 660,262 176,176 265,392 265,647 0,254 -89,471 -265,647 -176,176 -392,265 -647,265 -257,0 -473,-89 -652,-265 -176,-176 -265,-390 -265,-638 0,-168 41,-322 122,-463 81,-143 189,-254 330,-335 138,-78 289,-119 452,-119z"/>
  <polygon class="fil4" points="8999,22017 9248,20283 9275,20283 9981,21706 10679,20283 10706,20283 10955,22017 10784,22017 10614,20775 10000,22017 9957,22017 9334,20767 9164,22017 "/>
  <polygon class="fil4" points="11542,20280 12537,20280 12537,20451 11718,20451 11718,20994 12532,20994 12532,21165 11718,21165 11718,21847 12532,21847 12532,22017 11542,22017 "/>
  <path class="fil4" d="M14152 21852l200 0c241,0 406,-16 498,-46 130,-43 233,-119 308,-230 76,-111 111,-246 111,-406 0,-168 -41,-311 -122,-430 -81,-119 -195,-200 -338,-243 -108,-32 -287,-49 -536,-49l-122 0 0 1404zm-165 165l0 -1734 360 0c260,0 449,22 565,62 168,60 300,162 395,306 95,146 143,319 143,519 0,173 -38,327 -114,460 -76,133 -173,230 -292,292 -119,62 -287,95 -503,95l-555 0z"/>
  <polygon class="fil4" points="16027,20280 17023,20280 17023,20451 16203,20451 16203,20994 17017,20994 17017,21165 16203,21165 16203,21847 17017,21847 17017,22017 16030,22017 16030,20280 "/>
  <path class="fil4" d="M19179 20602l-138 106c-76,-97 -165,-173 -273,-225 -106,-51 -222,-76 -349,-76 -138,0 -268,32 -384,100 -119,68 -208,157 -273,268 -65,111 -97,238 -97,379 0,211 73,387 216,530 146,141 327,211 549,211 243,0 446,-95 609,-287l138 103c-87,111 -195,195 -325,254 -130,60 -273,89 -433,89 -303,0 -544,-100 -720,-303 -146,-170 -222,-376 -222,-617 0,-254 89,-468 268,-641 179,-173 400,-260 668,-260 162,0 308,32 438,97 138,68 243,157 327,271z"/>
  <path class="fil4" d="M20602 20407c-127,0 -249,32 -365,100 -116,68 -206,157 -271,271 -65,114 -97,241 -97,379 0,206 70,381 214,522 143,143 317,214 517,214 135,0 260,-32 373,-97 114,-65 203,-154 268,-268 65,-114 97,-238 97,-379 0,-138 -32,-262 -97,-373 -65,-111 -154,-200 -271,-268 -114,-68 -235,-100 -368,-100zm-5 -170c262,0 482,87 660,262 176,176 265,392 265,647 0,254 -89,471 -265,647 -176,176 -392,265 -647,265 -257,0 -473,-89 -652,-265 -176,-176 -265,-390 -265,-638 0,-168 41,-322 122,-463 81,-143 189,-254 330,-335 138,-78 289,-119 452,-119z"/>
  <path class="fil4" d="M22293 20451l0 590 298 3c116,0 200,-11 257,-32 57,-22 100,-57 130,-106 32,-49 46,-103 46,-162 0,-60 -16,-111 -46,-160 -32,-49 -73,-81 -124,-103 -51,-22 -135,-30 -254,-30l-306 0zm-173 -170l346 0c192,0 322,8 392,24 103,24 187,73 252,151 65,78 97,173 97,287 0,95 -22,179 -68,249 -43,70 -108,127 -189,162 -84,38 -197,54 -341,57l625 806 -214 0 -630 -806 -97 0 0 806 -173 0 0 -1737z"/>
 </g>
</svg>
